<svg width="401" height="212" viewBox="0 0 401 212" fill="none" xmlns="http://www.w3.org/2000/svg">
<rect width="401" height="212" rx="15" fill="#ECF5FF"/>
<rect x="45.873" y="28.5" width="57.8624" height="52.9572" rx="1.5" fill="white" stroke="#7438D2"/>
<path d="M47.373 28.5H102.235C103.064 28.5 103.735 29.1716 103.735 30V39.7627H45.873V30C45.873 29.1716 46.5446 28.5 47.373 28.5Z" fill="#F0EBFF" stroke="#7438D2"/>
<rect x="134.167" y="28.5" width="57.8624" height="52.9572" rx="1.5" fill="white" stroke="#1157CE"/>
<path d="M135.667 28.5H190.529C191.357 28.5 192.029 29.1716 192.029 30V39.7627H134.167V30C134.167 29.1716 134.838 28.5 135.667 28.5Z" fill="#ECF5FF" stroke="#0B57D0"/>
<rect x="222.46" y="28.5" width="57.8624" height="75.0306" rx="1.5" fill="white" stroke="#1157CE"/>
<path d="M223.96 28.5H278.823C279.651 28.5 280.323 29.1716 280.323 30V39.7627H222.46V30C222.46 29.1716 223.132 28.5 223.96 28.5Z" fill="#ECF5FF" stroke="#0B57D0"/>
<rect x="134.167" y="113.115" width="57.8624" height="73.8043" rx="1.5" fill="white" stroke="#1157CE"/>
<path d="M135.667 113.115H190.529C191.357 113.115 192.029 113.786 192.029 114.615V124.377H134.167V114.615C134.167 113.786 134.838 113.115 135.667 113.115Z" fill="#ECF5FF" stroke="#0B57D0"/>
<rect x="310.754" y="28.5" width="57.8624" height="52.9572" rx="1.5" fill="white" stroke="#0F5223"/>
<path d="M312.254 28.5H367.116C367.945 28.5 368.616 29.1716 368.616 30V39.7627H310.754V30C310.754 29.1716 311.425 28.5 312.254 28.5Z" fill="#E9FFEF" stroke="#146C2E"/>
<path d="M104.235 54.3652H133.667" stroke="#0B57D0"/>
<path d="M163.098 80.731L163.098 112.615" stroke="#0B57D0"/>
<path d="M192.529 54.3652H221.96" stroke="#0B57D0"/>
<path d="M280.822 54.3652H310.253" stroke="#0B57D0"/>
<circle cx="51.5044" cy="34.1313" r="2.4526" fill="#7438D2"/>
<circle cx="139.798" cy="34.1313" r="2.4526" fill="#0B57D0"/>
<circle cx="228.092" cy="34.1313" r="2.4526" fill="#0B57D0"/>
<circle cx="316.385" cy="34.1313" r="2.4526" fill="#146C2E"/>
<circle cx="139.798" cy="118.746" r="2.4526" fill="#0B57D0"/>
<rect x="51.5044" y="45.168" width="45.3731" height="6.1315" rx="3.06575" fill="#D9D9D9"/>
<rect x="139.798" y="45.168" width="45.3731" height="6.1315" rx="3.06575" fill="#D9D9D9"/>
<rect x="228.092" y="45.168" width="45.3731" height="6.1315" rx="3.06575" fill="#D9D9D9"/>
<rect x="139.798" y="129.783" width="45.3731" height="6.1315" rx="3.06575" fill="#D9D9D9"/>
<rect x="316.386" y="45.168" width="45.3731" height="6.1315" rx="3.06575" fill="#D9D9D9"/>
<rect x="51.5044" y="53.7524" width="45.3731" height="6.1315" rx="3.06575" fill="#D9D9D9"/>
<rect x="139.798" y="53.7524" width="45.3731" height="6.1315" rx="3.06575" fill="#D9D9D9"/>
<rect x="228.092" y="53.7524" width="45.3731" height="6.1315" rx="3.06575" fill="#D9D9D9"/>
<rect x="139.798" y="138.367" width="45.3731" height="6.1315" rx="3.06575" fill="#D9D9D9"/>
<rect x="228.092" y="79.5044" width="22.0734" height="6.1315" rx="3.06575" fill="#D6E9FF"/>
<rect x="139.798" y="164.119" width="22.0734" height="6.1315" rx="3.06575" fill="#D6E9FF"/>
<rect x="228.092" y="88.0884" width="22.0734" height="6.1315" rx="3.06575" fill="#D6E9FF"/>
<rect x="139.798" y="172.703" width="22.0734" height="6.1315" rx="3.06575" fill="#D6E9FF"/>
<rect x="253.844" y="79.5044" width="22.0734" height="6.1315" rx="3.06575" fill="#D6E9FF"/>
<rect x="165.55" y="164.119" width="22.0734" height="6.1315" rx="3.06575" fill="#D6E9FF"/>
<rect x="253.844" y="88.0884" width="22.0734" height="6.1315" rx="3.06575" fill="#D6E9FF"/>
<rect x="165.55" y="172.703" width="22.0734" height="6.1315" rx="3.06575" fill="#D6E9FF"/>
<rect x="316.386" y="53.7524" width="45.3731" height="6.1315" rx="3.06575" fill="#D9D9D9"/>
<rect x="51.5044" y="62.3364" width="45.3731" height="6.1315" rx="3.06575" fill="#D9D9D9"/>
<rect x="139.798" y="62.3364" width="45.3731" height="6.1315" rx="3.06575" fill="#D9D9D9"/>
<rect x="228.092" y="62.3364" width="45.3731" height="6.1315" rx="3.06575" fill="#D9D9D9"/>
<rect x="139.798" y="146.951" width="45.3731" height="6.1315" rx="3.06575" fill="#D9D9D9"/>
<rect x="316.386" y="62.3364" width="45.3731" height="6.1315" rx="3.06575" fill="#D9D9D9"/>
<line x1="226.865" y1="74.3491" x2="275.917" y2="74.3491" stroke="#D0E1FF" stroke-width="0.5"/>
<line x1="138.572" y1="158.964" x2="187.624" y2="158.964" stroke="#D0E1FF" stroke-width="0.5"/>
</svg>
